<svg xmlns="http://www.w3.org/2000/svg" version="1.1" xmlns:xlink="http://www.w3.org/1999/xlink" width="50" height="50" x="0" y="0" viewBox="0 0 64 64" style="enable-background:new 0 0 512 512" xml:space="preserve" class=""><g><path d="m27.334 23.124-3.435-1.013-2.024-2.954a1.935 1.935 0 0 0-3.19 0l-2.026 2.954-3.434 1.013a1.934 1.934 0 0 0-.986 3.034l2.183 2.839-.098 3.58a1.934 1.934 0 0 0 2.581 1.874l3.374-1.2 3.373 1.2a1.933 1.933 0 0 0 2.582-1.875l-.098-3.579 2.183-2.839a1.947 1.947 0 0 0-.985-3.034zm-3 4.936a.999.999 0 0 0-.207.636l.105 3.838c-.12-.02-3.951-1.465-3.953-1.344.002-.122-3.836 1.326-3.953 1.344l.105-3.838a.999.999 0 0 0-.207-.636l-2.342-3.045 3.684-1.086a.997.997 0 0 0 .542-.394l2.171-3.168 2.171 3.168a.997.997 0 0 0 .542.394l3.684 1.086z" fill="#D3AF37" opacity="1" data-original="#D3AF37" class=""></path><path d="m56.866 5.908-1.416.993a3.988 3.988 0 0 0-1.32-.231h-48a4.004 4.004 0 0 0-4 4v34a4.004 4.004 0 0 0 4 4h19.996v1.35c-3.721.677-5.996 2.231-5.996 4.15 0 2.954 5.03 4.5 10 4.5s10-1.546 10-4.5c0-1.92-2.278-3.475-6.004-4.151v-1.35H54.13a4.004 4.004 0 0 0 4-4V13.572l2.81-2.807a3.185 3.185 0 0 0-4.074-4.856zM38.13 54.17c0 .849-2.824 2.5-8 2.5s-8-1.651-8-2.5c0-.61 1.478-1.625 4.246-2.154a3.99 3.99 0 0 0 7.5-.001c2.773.529 4.254 1.545 4.254 2.155zm-6.004-3.501a2 2 0 0 1-4 0v-2h4zm22.004-4h-48a2.002 2.002 0 0 1-2-2V44h52v.67a2.002 2.002 0 0 1-2 2zm2-4.669h-52V10.67a2.002 2.002 0 0 1 2-2h46.796l-11.54 8.09a3.006 3.006 0 0 0-1.148 3.322 9.748 9.748 0 0 0-1.434 1.323 6.08 6.08 0 0 0-7.81 2.608 21.805 21.805 0 0 0-1.79 8.824C23.15 41.741 9.17 37.447 9.13 26.67a10.998 10.998 0 0 1 19.13-7.406 1 1 0 0 0 1.48-1.348A12.999 12.999 0 0 0 7.13 26.67c.11 13.018 17.03 17.867 24.005 6.897 2.838.218 7.347.25 9.287-1.39a6.447 6.447 0 0 0 2.118-6.317 9.567 9.567 0 0 0 1.555-1.182 3.006 3.006 0 0 0 3.47-.554l8.565-8.555zM39.135 30.646c-1.224 1.035-4.901 1.15-7.924.921.436-3.84 1.158-10.449 7.016-8.221a2.967 2.967 0 0 0 2.308 2.745 4.427 4.427 0 0 1-1.4 4.555zm2.72-6.699a1 1 0 0 1-1.286-1.532l.766-.643 1.286 1.532zM59.527 9.35 46.151 22.71a1.002 1.002 0 0 1-1.47-.064l-1.17-1.394-1.17-1.393a1.004 1.004 0 0 1 .193-1.461c1.025-.72 14.996-10.513 15.48-10.853a1.184 1.184 0 0 1 1.513 1.805z" fill="#D3AF37" opacity="1" data-original="#D3AF37" class=""></path></g></svg>