<svg xmlns="http://www.w3.org/2000/svg" version="1.1" xmlns:xlink="http://www.w3.org/1999/xlink" width="50" height="50" x="0" y="0" viewBox="0 0 96 96" style="enable-background:new 0 0 512 512" xml:space="preserve" class=""><g><g data-name="UI UX Design"><path d="M53.92 88.25H42.25a1 1 0 0 0 0 2h11.67a1 1 0 1 0 0-2Z" fill="#D3AF37" opacity="1" data-original="#D3AF37"></path><path d="M79.22 42.2H77V4.67A4.67 4.67 0 0 0 72.33 0H23.67A4.67 4.67 0 0 0 19 4.67V13h-5.2a1 1 0 0 0-1 1v34a1 1 0 0 0 1 1H19v8.93h-5.36a1 1 0 0 0-1 1v15.82a1 1 0 0 0 1 1H19v15.58A4.67 4.67 0 0 0 23.67 96h48.66A4.67 4.67 0 0 0 77 91.33V60.07h2.22a1 1 0 0 0 1-1V43.2a1 1 0 0 0-1-1ZM21 4.67A2.68 2.68 0 0 1 23.67 2h48.66A2.68 2.68 0 0 1 75 4.67v1.85a4.56 4.56 0 0 0-2.67-.85H23.67a4.56 4.56 0 0 0-2.67.85ZM14.8 15h26.45v15.23L38 27a1 1 0 0 0-1.42 0l-3 3L28 24.35a1 1 0 0 0-1.41 0L14.8 36.15Zm26.45 22.57L35 31.36l2.26-2.26 4 4ZM14.8 47v-8l12.51-12.5 13.94 13.9V47Zm-.16 26.79v-13.9h26.78v13.86ZM75 91.33A2.68 2.68 0 0 1 72.33 94H23.67A2.68 2.68 0 0 1 21 91.33V84a4.63 4.63 0 0 0 2.67.84h48.66A4.63 4.63 0 0 0 75 84Zm0-11.16a2.67 2.67 0 0 1-2.67 2.66H23.67A2.67 2.67 0 0 1 21 80.17v-4.42h21.42a1 1 0 0 0 1-1V58.89a1 1 0 0 0-1-1H21V49h21.25a1 1 0 0 0 1-1V14a1 1 0 0 0-1-1H21v-2.67a2.67 2.67 0 0 1 2.67-2.66h48.66A2.67 2.67 0 0 1 75 10.33V42.2H50.44a1 1 0 0 0-1 1v15.87a1 1 0 0 0 1 1H75Zm3.22-22.1H51.44V44.2h26.78Z" fill="#D3AF37" opacity="1" data-original="#D3AF37"></path><path d="M60.17 29.67A5.67 5.67 0 1 0 54.5 24a5.68 5.68 0 0 0 5.67 5.67Zm0-9.34A3.67 3.67 0 1 1 56.5 24a3.67 3.67 0 0 1 3.67-3.67Z" fill="#D3AF37" opacity="1" data-original="#D3AF37"></path><path d="M54.17 34.83v-.91h12v.91a1 1 0 0 0 1 1H71a1 1 0 0 0 1-1V31a1 1 0 0 0-1-1h-.92V18H71a1 1 0 0 0 1-1v-3.83a1 1 0 0 0-1-1h-3.83a1 1 0 0 0-1 1v.91h-12v-.91a1 1 0 0 0-1-1h-3.84a1 1 0 0 0-1 1V17a1 1 0 0 0 1 1h.92v12h-.92a1 1 0 0 0-1 1v3.83a1 1 0 0 0 1 1h3.84a1 1 0 0 0 1-1Zm15.83-1h-1.83V32H70Zm0-19.66V16h-1.83v-1.83Zm-19.67 0h1.84V16h-1.84ZM52.25 18h.92a1 1 0 0 0 1-1v-.92h12V17a1 1 0 0 0 1 1h.91v12h-.91a1 1 0 0 0-1 1v.92h-12V31a1 1 0 0 0-1-1h-.92Zm-1.92 15.83V32h1.84v1.83ZM24 43.16h8a1 1 0 1 0 0-2h-8a1 1 0 0 0 0 2ZM74.19 47.14H55.48a1 1 0 0 0 0 2h18.71a1 1 0 0 0 0-2ZM63 52.89h-7.52a1 1 0 0 0 0 2H63a1 1 0 0 0 0-2ZM74.19 52.89h-6.57a1 1 0 0 0 0 2h6.57a1 1 0 0 0 0-2ZM18.67 64.82h18.71a1 1 0 0 0 0-2H18.67a1 1 0 0 0 0 2ZM26.19 70.57a1 1 0 0 0 0-2h-7.52a1 1 0 0 0 0 2ZM37.38 68.57h-6.56a1 1 0 1 0 0 2h6.56a1 1 0 0 0 0-2ZM49.44 70.55v4.2a1 1 0 0 0 2 0v-1.1H71v1.1a1 1 0 0 0 2 0v-4.2a1 1 0 0 0-2 0v1.1H51.44v-1.1a1 1 0 0 0-2 0Z" fill="#D3AF37" opacity="1" data-original="#D3AF37"></path></g></g></svg>